<mxfile host="app.diagrams.net" agent="Mozilla/5.0 (Windows NT 10.0; Win64; x64) AppleWebKit/537.36 (KHTML, like Gecko) Chrome/134.0.0.0 Safari/537.36" version="26.1.0">
  <diagram name="Σελίδα-1" id="7b-M9LUDedupGRC8O--3">
    <mxGraphModel dx="1674" dy="746" grid="1" gridSize="10" guides="1" tooltips="1" connect="1" arrows="1" fold="1" page="1" pageScale="1" pageWidth="827" pageHeight="1169" math="0" shadow="0">
      <root>
        <mxCell id="0" />
        <mxCell id="1" parent="0" />
        <mxCell id="cQvLfwQMVPaJpdOVKwtA-1" value="" style="edgeStyle=orthogonalEdgeStyle;rounded=0;orthogonalLoop=1;jettySize=auto;html=1;fillColor=#d5e8d4;strokeColor=#82b366;" parent="1" source="ZaNhNVFnzFVlIC9nbiA6-1" target="ZaNhNVFnzFVlIC9nbiA6-2" edge="1">
          <mxGeometry relative="1" as="geometry" />
        </mxCell>
        <mxCell id="ZaNhNVFnzFVlIC9nbiA6-1" value="Start" style="rounded=0;whiteSpace=wrap;html=1;fillColor=#d5e8d4;strokeColor=#82b366;" parent="1" vertex="1">
          <mxGeometry x="60" y="180" width="120" height="60" as="geometry" />
        </mxCell>
        <mxCell id="ZaNhNVFnzFVlIC9nbiA6-5" value="" style="edgeStyle=orthogonalEdgeStyle;rounded=0;orthogonalLoop=1;jettySize=auto;html=1;fillColor=#d5e8d4;strokeColor=#82b366;" parent="1" source="ZaNhNVFnzFVlIC9nbiA6-2" target="ZaNhNVFnzFVlIC9nbiA6-4" edge="1">
          <mxGeometry relative="1" as="geometry" />
        </mxCell>
        <mxCell id="ZaNhNVFnzFVlIC9nbiA6-11" value="" style="edgeStyle=orthogonalEdgeStyle;rounded=0;orthogonalLoop=1;jettySize=auto;html=1;" parent="1" source="ZaNhNVFnzFVlIC9nbiA6-2" target="ZaNhNVFnzFVlIC9nbiA6-10" edge="1">
          <mxGeometry relative="1" as="geometry" />
        </mxCell>
        <mxCell id="ZaNhNVFnzFVlIC9nbiA6-2" value="Initialize variables" style="whiteSpace=wrap;html=1;rounded=0;fillColor=#d5e8d4;strokeColor=#82b366;" parent="1" vertex="1">
          <mxGeometry x="60" y="310" width="120" height="60" as="geometry" />
        </mxCell>
        <mxCell id="ZaNhNVFnzFVlIC9nbiA6-7" value="" style="edgeStyle=orthogonalEdgeStyle;rounded=0;orthogonalLoop=1;jettySize=auto;html=1;fillColor=#d5e8d4;strokeColor=#82b366;" parent="1" source="ZaNhNVFnzFVlIC9nbiA6-4" target="ZaNhNVFnzFVlIC9nbiA6-6" edge="1">
          <mxGeometry relative="1" as="geometry" />
        </mxCell>
        <mxCell id="ZaNhNVFnzFVlIC9nbiA6-16" value="" style="edgeStyle=orthogonalEdgeStyle;rounded=0;orthogonalLoop=1;jettySize=auto;html=1;" parent="1" source="ZaNhNVFnzFVlIC9nbiA6-4" target="ZaNhNVFnzFVlIC9nbiA6-15" edge="1">
          <mxGeometry relative="1" as="geometry">
            <Array as="points">
              <mxPoint x="250" y="500" />
              <mxPoint x="250" y="500" />
            </Array>
          </mxGeometry>
        </mxCell>
        <mxCell id="ZaNhNVFnzFVlIC9nbiA6-4" value="activation functions" style="whiteSpace=wrap;html=1;rounded=0;fillColor=#d5e8d4;strokeColor=#82b366;" parent="1" vertex="1">
          <mxGeometry x="60" y="450" width="120" height="60" as="geometry" />
        </mxCell>
        <mxCell id="ZaNhNVFnzFVlIC9nbiA6-9" value="" style="edgeStyle=orthogonalEdgeStyle;rounded=0;orthogonalLoop=1;jettySize=auto;html=1;fillColor=#d5e8d4;strokeColor=#82b366;" parent="1" source="ZaNhNVFnzFVlIC9nbiA6-6" target="ZaNhNVFnzFVlIC9nbiA6-8" edge="1">
          <mxGeometry relative="1" as="geometry" />
        </mxCell>
        <mxCell id="ZaNhNVFnzFVlIC9nbiA6-20" value="" style="edgeStyle=orthogonalEdgeStyle;rounded=0;orthogonalLoop=1;jettySize=auto;html=1;" parent="1" source="ZaNhNVFnzFVlIC9nbiA6-6" target="ZaNhNVFnzFVlIC9nbiA6-19" edge="1">
          <mxGeometry relative="1" as="geometry">
            <Array as="points">
              <mxPoint x="220" y="640" />
              <mxPoint x="220" y="640" />
            </Array>
          </mxGeometry>
        </mxCell>
        <mxCell id="ZaNhNVFnzFVlIC9nbiA6-6" value="forward pass" style="whiteSpace=wrap;html=1;rounded=0;fillColor=#d5e8d4;strokeColor=#82b366;" parent="1" vertex="1">
          <mxGeometry x="60" y="590" width="120" height="60" as="geometry" />
        </mxCell>
        <mxCell id="ZaNhNVFnzFVlIC9nbiA6-25" value="" style="edgeStyle=orthogonalEdgeStyle;rounded=0;orthogonalLoop=1;jettySize=auto;html=1;" parent="1" source="ZaNhNVFnzFVlIC9nbiA6-8" target="ZaNhNVFnzFVlIC9nbiA6-24" edge="1">
          <mxGeometry relative="1" as="geometry">
            <Array as="points">
              <mxPoint x="270" y="780" />
              <mxPoint x="270" y="780" />
            </Array>
          </mxGeometry>
        </mxCell>
        <mxCell id="ZaNhNVFnzFVlIC9nbiA6-8" value="backward pass" style="whiteSpace=wrap;html=1;rounded=0;fillColor=#d5e8d4;strokeColor=#82b366;" parent="1" vertex="1">
          <mxGeometry x="60" y="730" width="120" height="60" as="geometry" />
        </mxCell>
        <mxCell id="ZaNhNVFnzFVlIC9nbiA6-13" value="" style="edgeStyle=orthogonalEdgeStyle;rounded=0;orthogonalLoop=1;jettySize=auto;html=1;fillColor=#dae8fc;strokeColor=#6c8ebf;" parent="1" source="ZaNhNVFnzFVlIC9nbiA6-10" target="ZaNhNVFnzFVlIC9nbiA6-12" edge="1">
          <mxGeometry relative="1" as="geometry" />
        </mxCell>
        <mxCell id="ZaNhNVFnzFVlIC9nbiA6-10" value="intitialize weights, biases, learning rate,activations" style="whiteSpace=wrap;html=1;rounded=0;fillColor=#dae8fc;strokeColor=#6c8ebf;" parent="1" vertex="1">
          <mxGeometry x="236" y="310" width="120" height="60" as="geometry" />
        </mxCell>
        <mxCell id="ZaNhNVFnzFVlIC9nbiA6-12" value="store inputs or backpropagation" style="whiteSpace=wrap;html=1;rounded=0;fillColor=#dae8fc;strokeColor=#6c8ebf;" parent="1" vertex="1">
          <mxGeometry x="414" y="310" width="120" height="60" as="geometry" />
        </mxCell>
        <mxCell id="ZaNhNVFnzFVlIC9nbiA6-14" style="edgeStyle=orthogonalEdgeStyle;rounded=0;orthogonalLoop=1;jettySize=auto;html=1;entryX=0.995;entryY=0.135;entryDx=0;entryDy=0;entryPerimeter=0;" parent="1" source="ZaNhNVFnzFVlIC9nbiA6-12" target="ZaNhNVFnzFVlIC9nbiA6-4" edge="1">
          <mxGeometry relative="1" as="geometry">
            <Array as="points">
              <mxPoint x="474" y="458" />
            </Array>
          </mxGeometry>
        </mxCell>
        <mxCell id="ZaNhNVFnzFVlIC9nbiA6-17" style="edgeStyle=orthogonalEdgeStyle;rounded=0;orthogonalLoop=1;jettySize=auto;html=1;entryX=1;entryY=0.25;entryDx=0;entryDy=0;" parent="1" source="ZaNhNVFnzFVlIC9nbiA6-15" target="ZaNhNVFnzFVlIC9nbiA6-6" edge="1">
          <mxGeometry relative="1" as="geometry">
            <Array as="points">
              <mxPoint x="430" y="605" />
            </Array>
          </mxGeometry>
        </mxCell>
        <mxCell id="ZaNhNVFnzFVlIC9nbiA6-15" value="function to select wanted activation, it&#39;s derivative" style="whiteSpace=wrap;html=1;rounded=0;fillColor=#dae8fc;strokeColor=#6c8ebf;" parent="1" vertex="1">
          <mxGeometry x="370" y="470" width="120" height="60" as="geometry" />
        </mxCell>
        <mxCell id="ZaNhNVFnzFVlIC9nbiA6-22" value="" style="edgeStyle=orthogonalEdgeStyle;rounded=0;orthogonalLoop=1;jettySize=auto;html=1;fillColor=#dae8fc;strokeColor=#6c8ebf;" parent="1" source="ZaNhNVFnzFVlIC9nbiA6-19" target="ZaNhNVFnzFVlIC9nbiA6-21" edge="1">
          <mxGeometry relative="1" as="geometry" />
        </mxCell>
        <mxCell id="ZaNhNVFnzFVlIC9nbiA6-19" value="x&#39; = W*X +b" style="whiteSpace=wrap;html=1;rounded=0;fillColor=#dae8fc;strokeColor=#6c8ebf;" parent="1" vertex="1">
          <mxGeometry x="280" y="620" width="120" height="60" as="geometry" />
        </mxCell>
        <mxCell id="ZaNhNVFnzFVlIC9nbiA6-23" style="edgeStyle=orthogonalEdgeStyle;rounded=0;orthogonalLoop=1;jettySize=auto;html=1;entryX=1;entryY=0.25;entryDx=0;entryDy=0;" parent="1" source="ZaNhNVFnzFVlIC9nbiA6-21" target="ZaNhNVFnzFVlIC9nbiA6-8" edge="1">
          <mxGeometry relative="1" as="geometry">
            <Array as="points">
              <mxPoint x="540" y="745" />
            </Array>
          </mxGeometry>
        </mxCell>
        <mxCell id="ZaNhNVFnzFVlIC9nbiA6-21" value="x&#39;&#39; = activation(x&#39;)" style="whiteSpace=wrap;html=1;rounded=0;fillColor=#dae8fc;strokeColor=#6c8ebf;" parent="1" vertex="1">
          <mxGeometry x="480" y="620" width="120" height="60" as="geometry" />
        </mxCell>
        <mxCell id="ZaNhNVFnzFVlIC9nbiA6-27" value="" style="edgeStyle=orthogonalEdgeStyle;rounded=0;orthogonalLoop=1;jettySize=auto;html=1;fillColor=#dae8fc;strokeColor=#6c8ebf;" parent="1" source="ZaNhNVFnzFVlIC9nbiA6-24" target="ZaNhNVFnzFVlIC9nbiA6-26" edge="1">
          <mxGeometry relative="1" as="geometry" />
        </mxCell>
        <mxCell id="ZaNhNVFnzFVlIC9nbiA6-24" value="calculate activation gradient" style="whiteSpace=wrap;html=1;rounded=0;fillColor=#dae8fc;strokeColor=#6c8ebf;" parent="1" vertex="1">
          <mxGeometry x="310" y="770" width="120" height="60" as="geometry" />
        </mxCell>
        <mxCell id="ZaNhNVFnzFVlIC9nbiA6-29" value="" style="edgeStyle=orthogonalEdgeStyle;rounded=0;orthogonalLoop=1;jettySize=auto;html=1;fillColor=#dae8fc;strokeColor=#6c8ebf;" parent="1" source="ZaNhNVFnzFVlIC9nbiA6-26" target="ZaNhNVFnzFVlIC9nbiA6-28" edge="1">
          <mxGeometry relative="1" as="geometry" />
        </mxCell>
        <mxCell id="ZaNhNVFnzFVlIC9nbiA6-26" value="calculate weight, bias and input loss&amp;nbsp;" style="whiteSpace=wrap;html=1;rounded=0;fillColor=#dae8fc;strokeColor=#6c8ebf;" parent="1" vertex="1">
          <mxGeometry x="510" y="770" width="120" height="60" as="geometry" />
        </mxCell>
        <mxCell id="ZaNhNVFnzFVlIC9nbiA6-28" value="update wights, biases, pass input loss" style="whiteSpace=wrap;html=1;rounded=0;fillColor=#dae8fc;strokeColor=#6c8ebf;" parent="1" vertex="1">
          <mxGeometry x="690" y="770" width="120" height="60" as="geometry" />
        </mxCell>
      </root>
    </mxGraphModel>
  </diagram>
</mxfile>
